<svg width="154" height="82" viewBox="0 0 154 82" fill="none" xmlns="http://www.w3.org/2000/svg">
<g id="Camada_1" clip-path="url(#clip0_18_575)">
<g id="LOGO_CHINA_LINK">
<g id="logo_china_link">
<path id="Vector" d="M56.3457 28.0655C55.6068 27.9678 54.904 26.368 54.5526 25.6684C50.6512 17.8393 46.7188 10.0307 42.7916 2.21705C42.4453 1.52776 42.0681 0.848755 41.6185 0C41.3498 0.498965 41.2 0.751019 41.076 1.01336C37.2986 9.23342 33.516 17.4535 29.7644 25.689C29.3769 26.5429 28.9067 27.0573 27.961 27.1962C20.9901 28.2147 14.0244 29.264 7.06389 30.3134C4.76955 30.6581 2.4752 31.0336 0 31.4245C0.330716 31.8103 0.501242 32.0418 0.697604 32.2373C7.22408 38.7032 13.7557 45.1538 20.2564 51.6454C20.6439 52.0312 21.0005 52.7617 20.9281 53.2709C19.7706 61.4138 18.5356 69.5465 17.3264 77.6842C17.1301 78.9959 16.9905 80.3179 16.7787 82.0103C25.3153 74.5515 33.3817 67.1082 41.6185 59.9169C41.5617 59.8346 41.6754 59.9992 41.6185 59.9169C35.986 63.029 30.3535 66.1463 24.5763 69.3407C24.7055 68.3325 24.7934 67.6123 24.8967 66.8973C25.7028 61.1721 26.5348 55.4468 27.2841 49.7113C27.3513 49.1866 27.0619 48.4408 26.6898 48.055C24.3851 45.6939 21.9771 43.4357 19.6569 41.0797C17.4969 38.8884 15.4041 36.6251 13.3165 34.4234C13.4663 34.3874 13.7816 34.2948 14.1019 34.2383C20.0135 33.2146 25.925 32.1704 31.8469 31.2085C32.6737 31.0747 33.0664 30.7198 33.4023 29.9996C35.2109 26.1314 37.0557 22.2837 38.8953 18.4308C39.8048 16.5224 40.7349 14.6243 41.7374 12.5616C42.0526 13.148 42.2593 13.5132 42.4505 13.8887C45.1737 19.2024 47.9022 24.511 50.5996 29.8402C50.9664 30.5706 51.6175 32.2527 52.4753 32.2424C69.1145 32.0469 85.7485 31.8617 102.388 31.6817C100.553 31.5325 59.0897 28.4204 56.3561 28.0706L56.3457 28.0655Z" fill="white"/>
</g>
<path id="Vector_2" d="M153.866 55.061L148.321 46.3472L151.396 42.3966L152.403 43.3431L153.675 37.3864L153.685 37.3401L147.825 38.8472L148.807 39.8246L144.347 45.5756V35.3288C144.347 35.3288 143.314 34.2948 143.283 34.2691H140.751C140.482 34.2691 140.343 34.4337 140.343 34.7166V55.3697C140.343 55.6783 140.477 55.8172 140.751 55.8172H143.944C143.97 55.8172 143.991 55.8069 144.017 55.8069C144.239 55.7812 144.352 55.6475 144.352 55.3697V47.2988L149.406 55.5086C149.515 55.704 149.732 55.8172 150 55.8172H153.406C153.499 55.8172 153.576 55.8121 153.644 55.8018C154.114 55.7246 154.031 55.3851 153.866 55.0662V55.061Z" fill="white"/>
<path id="Vector_3" d="M115.182 52.0004H106.31V34.6858C106.31 34.408 106.175 34.2691 105.901 34.2691H102.465C102.196 34.2691 102.057 34.408 102.057 34.6858V53.6001C102.558 54.0991 104.103 55.6372 104.279 55.8121C104.294 55.8121 115.172 55.8121 115.172 55.8121C115.441 55.8121 115.58 55.6732 115.58 55.3954V52.417C115.58 52.1393 115.446 52.0004 115.172 52.0004H115.182Z" fill="white"/>
<path id="Vector_4" d="M92.9984 40.0869C91.3242 40.0869 89.7533 40.1692 88.1049 40.5036C87.8362 40.5602 87.7277 40.6168 87.7277 40.9511V43.2351C87.7277 43.5694 87.8103 43.6517 88.1049 43.6517H94.9311L95.5408 44.2638V46.5786H92.1045C88.5079 46.5786 86.6167 47.3862 86.5598 51.1413C86.6115 55.5137 88.7508 55.9561 92.8073 55.9561C94.6727 55.9561 97.0549 55.8172 98.9462 55.3697C99.4319 55.2051 99.5404 54.953 99.5404 54.5055V44.876C99.5404 41.8719 98.3519 40.0869 92.9984 40.0869ZM95.5408 52.3296C94.7554 52.5508 93.3757 52.6074 92.8383 52.6074C91.133 52.6074 90.5387 52.2473 90.5387 50.9099C90.5387 49.7113 91.0245 49.2381 92.43 49.2381H95.5408V52.3296Z" fill="white"/>
<path id="Vector_5" d="M45.5148 52.1393H39.9701C36.2392 52.1393 35.5881 50.4417 35.5881 45.0149C35.5881 39.588 36.2392 37.9162 39.9701 37.9162H43.9749L45.613 36.2907C45.613 35.7403 45.6026 34.7681 45.6026 34.2588C44.2281 34.1868 42.342 34.0839 39.9701 34.0994C33.0716 34.1457 31.2888 36.5788 31.2888 45.0097C31.2888 53.4407 33.0716 55.9509 39.9701 55.9509C42.3471 55.9509 43.9749 55.812 45.2977 55.5343C45.706 55.4211 45.9178 55.2565 45.9178 54.809V52.5559C45.9178 52.2781 45.7835 52.1393 45.5148 52.1393Z" fill="white"/>
<path id="Vector_6" d="M84.0432 53.2658V42.4892C84.0432 42.4892 82.803 41.2598 81.9246 40.3853C81.0306 40.1641 79.2272 40.0869 77.8113 40.0869C75.7805 40.0869 73.1606 40.1435 71.3468 40.5602C71.0781 40.6168 70.9386 40.6425 70.9386 40.9769V55.3697C70.9386 55.6783 71.073 55.8172 71.3468 55.8172H74.5661C74.8348 55.8172 74.9744 55.6783 74.9744 55.3697V43.6517H77.4341C78.173 43.6517 78.7776 43.6517 79.2013 43.6569C79.5889 44.0581 79.7646 44.1918 80.209 44.6651C80.209 45.411 80.2348 55.3697 80.2348 55.3697C80.2348 55.6423 80.4105 55.7812 80.643 55.8069L80.7309 55.8121H83.6092C83.8779 55.8121 84.0432 55.668 84.0432 55.3645V53.9242V53.9448C84.0536 53.9602 84.0432 53.2606 84.0432 53.2606V53.2658Z" fill="white"/>
<path id="Vector_7" d="M51.5452 34.2691C51.8243 34.5469 52.062 34.7835 52.4702 35.1899V40.2258C53.4727 40.1127 54.5785 40.0869 55.3381 40.0869C60.5056 40.0869 61.8543 41.09 61.8543 46.769V55.3697C61.8543 55.6783 61.7199 55.8172 61.4461 55.8172H58.2267C57.958 55.8172 57.8495 55.6783 57.8495 55.3697V47.8286C57.8495 43.8472 57.4155 43.6517 54.9299 43.6517H52.4961V55.3697C52.4961 55.6783 52.3617 55.8172 52.0878 55.8172H48.8427C48.574 55.8172 48.4655 55.6783 48.4655 55.3697V34.7166C48.4655 34.4389 48.5998 34.2691 48.8737 34.2691H51.5452ZM51.5452 34.2691C51.814 34.5829 52.1188 34.871 52.4702 35.2979V40.2258" fill="white"/>
<path id="Vector_8" d="M135.537 40.447C134.643 40.2258 132.948 40.1538 131.532 40.1538C129.501 40.1538 126.881 40.2104 125.067 40.6271C124.799 40.6836 124.664 40.7094 124.664 41.0437V55.4365C124.664 55.7452 124.799 55.8841 125.067 55.8841H128.287C128.556 55.8841 128.695 55.7452 128.695 55.4365V43.7186H131.155C131.894 43.7186 132.364 43.7186 132.788 43.7237C133.175 44.1095 133.423 44.3564 133.919 44.8503C133.919 45.591 133.924 55.4365 133.924 55.4365C133.924 55.7195 134.147 55.8583 134.395 55.8789H134.364H134.452H137.33C137.599 55.8789 137.764 55.7349 137.764 55.4314C137.764 55.4314 137.795 43.77 137.79 42.6898C136.922 41.8307 136.431 41.3421 135.537 40.447Z" fill="white"/>
<g id="Group">
<path id="Vector_9" d="M118.107 42.3297V55.3645C118.107 55.6732 118.241 55.8121 118.51 55.8121H121.703C121.972 55.8121 122.112 55.6732 122.112 55.3645V42.34C122.112 42.34 119.45 42.3091 118.107 42.3297Z" fill="white"/>
<path id="Vector_10" d="M122.107 38.2094C122.107 37.9265 121.972 37.7876 121.698 37.7876H119.047C118.624 38.2145 118.412 38.4306 118.102 38.7341V40.4007H122.107V38.2094Z" fill="white"/>
</g>
<g id="Group_2">
<path id="Vector_11" d="M67.3472 37.7876H64.841C64.5723 37.7876 64.4327 37.9265 64.4327 38.2094V40.4007H68.4375V38.873C68.1223 38.554 67.7192 38.23 67.3472 37.7927V37.7876Z" fill="white"/>
<path id="Vector_12" d="M64.4379 42.3349V55.3594C64.4379 55.668 64.5722 55.8069 64.8461 55.8069H68.0396C68.3083 55.8069 68.4426 55.668 68.4426 55.3594V42.3246C67.0991 42.2989 64.4637 42.3349 64.4379 42.3349Z" fill="white"/>
</g>
</g>
</g>
<defs>
<clipPath id="clip0_18_575">
<rect width="154" height="82" fill="white"/>
</clipPath>
</defs>
</svg>
